<svg xmlns="http://www.w3.org/2000/svg" viewBox="0 0 807.05 157.55"><defs><style>.cls-1{fill:#fefefe;}.cls-2{fill:#818385;}.cls-3{fill:#fff;}</style></defs><g id="Layer_2" data-name="Layer 2"><g id="Layer_1-2" data-name="Layer 1"><path class="cls-1" d="M149,50.51A41.8,41.8,0,0,0,135.66,39a2.33,2.33,0,0,1-.8-.73C125.56,24.72,113.26,15,97.5,10.32,76.72,4.14,57,6.93,39,19.14,24.31,29,14.86,42.8,10.09,59.79A69.2,69.2,0,0,0,7.33,80.42a31.44,31.44,0,0,0,21.24,29c11.7,3.71,22.09,1.2,30.9-7.35,9.06-8.8,17.93-17.79,26.83-26.75,4.8-4.84,9.6-9.69,14.43-14.5a22,22,0,0,1,12.65-6.68c9.48-1.3,16.87,2.18,22.2,10,3.25,4.79,4.24,10.21,4.1,15.89-.25,10.22-3,19.8-7.42,29a99.47,99.47,0,0,1-25.83,33.83A70.65,70.65,0,0,1,87.5,154.51a40,40,0,0,1-23.9,2.12c-23.43-4.94-41.08-17.84-53.16-38.45A72.35,72.35,0,0,1,4.94,106c-.1-.27-.21-.54-.32-.83.29-.16.38.1.49.25A43.8,43.8,0,0,0,17,116.18a4.8,4.8,0,0,1,1.6,1.57c10.65,16.51,25.65,26.77,44.71,31.37,11,2.64,20.91.3,30.26-5.59,10.71-6.76,19.16-15.79,26-26.34A84.55,84.55,0,0,0,130.31,94.4a51,51,0,0,0,1.94-18.13c-.5-6.08-3.25-10.89-8.82-13.65C118.16,60,113,60.57,108.2,64c-2.83,2-5.12,4.63-7.56,7.07q-18,17.9-35.88,35.86a36.94,36.94,0,0,1-17.86,10.3C35,120,24.28,117.37,14.81,109.8A38.6,38.6,0,0,1,.6,86,47.81,47.81,0,0,1,.37,72.4,82.42,82.42,0,0,1,9.15,42.25,77.78,77.78,0,0,1,46.76,6.51,72.31,72.31,0,0,1,79.92.06c19.19.74,35.78,7.84,49.74,21a76.33,76.33,0,0,1,19,28A8.07,8.07,0,0,1,149,50,2.69,2.69,0,0,1,149,50.51Z"/><path class="cls-1" d="M33,46.4a48.9,48.9,0,0,0-5.54,10.15,21.37,21.37,0,0,1,5.9-2.25c7.2-1.39,13.68.13,19.18,5.07,3.84,3.45,7.32,7.28,11,10.92.34.32.36.52,0,.86-1.43,1.39-2.84,2.78-4.22,4.21-.38.4-.57.33-.92,0q-4.87-4.86-9.78-9.68a14.82,14.82,0,0,0-8.18-4.38c-6-.92-10.86,1.31-14.57,6-3.37,4.24-4,9.22-3.34,14.41a16.18,16.18,0,0,0,7.35,11.93,15.35,15.35,0,0,0,16.76-.33,45.65,45.65,0,0,0,5.45-5Q71.23,69.2,90.35,50.11a37.13,37.13,0,0,1,19.31-10.59c11.87-2.3,22.5.44,31.58,8.56a39.24,39.24,0,0,1,13,24.73,64.12,64.12,0,0,1-.87,20.07,78.58,78.58,0,0,1-16,35.52,76.6,76.6,0,0,1-41.57,27.16c-.32.09-.65.15-1,.22s-.23,0-.19-.19a89.09,89.09,0,0,0,21.8-17.17,5.13,5.13,0,0,1,.88-.8,68.07,68.07,0,0,0,21.71-24.89,72.12,72.12,0,0,0,8.09-27.57c.45-4.89.66-9.8-.58-14.59C143.37,58.25,136,49.79,123.38,46.78c-9.89-2.37-18.84.25-26.34,7-5,4.48-9.53,9.4-14.28,14.13-9.63,9.6-19.19,19.29-28.91,28.81a22.2,22.2,0,0,1-27.11,3.33C19.3,95.48,15.42,88.62,15,79.87c-.25-5.55,1-10.94,2.39-16.26,2.49-9.32,6.32-18,12.43-25.59,9.56-11.83,21.78-19.5,36.84-22,21.36-3.51,39.72,2.61,54.86,18.15l.45.47c0,.34-.2.27-.4.22a29.43,29.43,0,0,0-9.13-.06,1.28,1.28,0,0,1-1.07-.34,53.63,53.63,0,0,0-64.59-2.6A38.41,38.41,0,0,0,39,38.66"/><path class="cls-1" d="M108.46,125.51a73.65,73.65,0,0,1-17.85,15.36,9.92,9.92,0,0,1-3.8.92c-19.71,2.85-36.8-2.76-51.5-16a32.87,32.87,0,0,1-4.08-4.16c1.24.14,2.31.3,3.38.36a64.91,64.91,0,0,0,6.69.06,1.67,1.67,0,0,1,1.24.42c11.31,9.35,24.3,13.69,38.95,12.69A51.11,51.11,0,0,0,107.42,126C107.7,125.79,107.93,125.45,108.46,125.51Z"/><path class="cls-1" d="M119.11,110.82c-1.43,2.47-2.92,4.73-4.48,7-.25.36-.6.23-.92.21a35.08,35.08,0,0,1-16.39-5.26,39,39,0,0,1-7.46-5.9q-4.52-4.5-9-9c-.38-.38-.5-.6,0-1q2.07-2,4-4.13c.46-.49.67-.33,1.06,0,3,3,6.12,6.07,9.19,9.1a30.56,30.56,0,0,0,13.08,8A31.31,31.31,0,0,0,119.11,110.82Z"/><path class="cls-1" d="M43.83,39.22c8.54,1.45,15.56,5.64,21.54,11.8,2.82,2.91,5.74,5.75,8.63,8.6.39.38.44.58,0,1-1.41,1.36-2.79,2.74-4.14,4.16-.42.44-.65.41-1.06,0-3.23-3.25-6.5-6.47-9.73-9.71A30.2,30.2,0,0,0,42,46.32c-.42-.06-.85-.09-1.27-.13a12.13,12.13,0,0,0-2-.06c-.74,0-.84-.14-.42-.77,1-1.44,1.94-2.87,3-4.23.38-.47.77-.94,1.14-1.42A1.12,1.12,0,0,1,43.83,39.22Z"/><path class="cls-1" d="M127.15,91.66a67,67,0,0,1-3.35,9.81,1.17,1.17,0,0,1-.84.73c-7.56,2-14.49.82-20.57-4.21-4-3.36-7.56-7.29-11.33-11-.39-.37-.17-.52.09-.77,1.41-1.4,2.83-2.78,4.21-4.22.41-.43.6-.34,1,0,3,3,6.11,6,9.14,9A15.39,15.39,0,0,0,117,95.92C120.74,95.85,123.41,94.75,127.15,91.66Z"/><path class="cls-2" d="M121.6,34.88c.13-.08.35,0,.4-.22.17,0,.3.2.21.29S121.79,35.05,121.6,34.88Z"/><path class="cls-1" d="M376.81,123.51c-15.24,0-30.48,0-45.72,0-2,0-2.77-.33-2.77-2.62q.15-42.19,0-84.39c0-2.12.5-2.74,2.69-2.73q45.47.12,90.92,0c2.26,0,3,.47,2.87,2.84-.23,4.08-.17,8.18,0,12.27.07,1.85-.48,2.28-2.29,2.28q-34.22-.09-68.44,0c-4.48,0-4.49,0-4.49,4.49,0,3.92.08,7.84-.06,11.76-.07,1.84.46,2.3,2.3,2.3,21.16-.07,42.32,0,63.48-.1,2.28,0,3,.49,2.82,2.82a104.67,104.67,0,0,0,0,11.48c.11,2.17-.68,2.53-2.63,2.52-21-.06-42,0-63-.09-2.3,0-3.13.44-3,2.92.22,5,.19,9.93,0,14.89-.08,2.21.72,2.52,2.65,2.52,23.52-.06,47,0,70.54-.09,2.18,0,2.8.51,2.69,2.69a95.74,95.74,0,0,0,.06,11.49c.18,2.48-.75,2.79-2.91,2.78C407.29,123.47,392.05,123.51,376.81,123.51Z"/><path class="cls-1" d="M675.41,62.67c-.22,7.18.4,16.07-.27,24.93-1.6,21.4-14.15,32-31.84,35.58-15,3-30.12,3.18-45-.68-18-4.68-28.59-17.66-29.38-36.25-.72-16.87-.17-33.77-.36-50.65,0-1.67.75-1.79,2.06-1.77,5.74.06,11.49.14,17.23,0,2,0,2.23.74,2.22,2.43,0,15,0,30.11,0,45.17a36.75,36.75,0,0,0,.93,8.81c2,8.07,7,13.32,15,15.33a65.92,65.92,0,0,0,30.28.39c11.79-2.59,17.48-10.16,17.6-23,.15-15.41.09-30.82,0-46.22,0-2.18.33-3,2.78-2.92,5.47.23,11,.15,16.45.06,1.77,0,2.36.44,2.33,2.31C675.35,44.44,675.41,52.71,675.41,62.67Z"/><path class="cls-1" d="M545.24,100.57c0,5.8-.08,11.29,0,16.77.05,1.71-.68,2.18-2.1,2.6a134.33,134.33,0,0,1-34.73,5.19c-11.08.26-22.11-.14-32.88-3.12-19.63-5.44-31.51-20.65-32.11-41a54.12,54.12,0,0,1,2.42-18.8c4.7-14.25,15.12-22.36,29-26.37s27.95-4.41,42.18-3a143.72,143.72,0,0,1,25.85,4.87c1.61.47,2.44,1,2.35,2.94-.19,4.78-.14,9.58,0,14.36,0,1.82-.34,2.25-2.13,1.6a113.12,113.12,0,0,0-46.47-6.21,54.52,54.52,0,0,0-14.61,2.51c-9.64,3.36-15.13,10.23-16.5,20.24a37.13,37.13,0,0,0,.61,14.54c2.74,10.45,10.09,15.84,20.19,18,10.85,2.35,21.81,1.91,32.75.82A107.88,107.88,0,0,0,545.24,100.57Z"/><path class="cls-3" d="M786,93c-.8-1.16-1.36-1.87.66-2.47,11.4-3.4,17.69-11.34,19.15-22.93,1.79-14.3-5.05-28.07-21.09-32a61,61,0,0,0-14.47-1.76c-22.21,0-44.41,0-66.62,0-1.84,0-2.3.53-2.3,2.34q.1,42.45,0,84.89c0,2.18.71,2.54,2.64,2.5,5.4-.12,10.8-.14,16.2,0,2.1.06,2.79-.41,2.76-2.65-.14-8.45,0-16.89-.09-25.34,0-1.73.3-2.36,2.22-2.35,11.76.11,23.51.09,35.27,0A3.5,3.5,0,0,1,763.75,95c5.88,8.94,11.83,17.82,17.77,26.72.55.82.9,1.81,2.28,1.8,7.63-.06,15.26,0,23.25,0C799.84,113.08,793,103.05,786,93ZM776,75.67a20.9,20.9,0,0,1-6.42,1q-10.7,0-21.4,0h0c-7.74,0-15.48,0-23.23,0-1.6,0-2-.38-2-2,.1-7.13.08-14.26,0-21.4,0-1.6.26-2.24,2.09-2.23,14.71.09,29.41,0,44.11,0a23.35,23.35,0,0,1,6.7.86c5.6,1.67,8.62,5.66,8.71,11.55C784.63,69.75,781.73,73.87,776,75.67Z"/><path class="cls-3" d="M283.38,93.24c-.82-1.18-1.55-2.08.68-2.68,12.05-3.28,18.95-14,19.19-26.49.28-14.32-7.42-24.7-21.23-28.39a49.09,49.09,0,0,0-12.62-1.77c-22.9,0-45.8,0-68.69-.08-1.69,0-2,.55-2,2.1q.08,42.83,0,85.66c0,1.69.56,2,2.09,2,5.66-.1,11.32-.13,17,0,1.84,0,2.3-.51,2.28-2.32-.11-8.44,0-16.89-.13-25.33,0-2.25.66-2.68,2.76-2.66,11.58.11,23.16.09,34.74,0a3.88,3.88,0,0,1,3.77,2c5.8,8.88,11.71,17.69,17.6,26.52.56.83,1,1.77,2.31,1.76,7.55-.06,15.1,0,23,0C297,113.16,290.22,103.2,283.38,93.24Zm-8.65-18.18a20.06,20.06,0,0,1-7.61,1.55c-7.23,0-14.45,0-21.68,0v0c-7.75,0-15.5-.06-23.24,0-1.77,0-2.18-.52-2.17-2.2.08-7,.1-14.1,0-21.15,0-1.9.62-2.27,2.38-2.26,14.45.07,28.9,0,43.35,0a23.41,23.41,0,0,1,9,1.38c4.6,1.88,7.09,5.83,7,11.15Q281.67,72.25,274.73,75.06Z"/></g></g></svg>